{
  "accessors": [
    {
      "name": "satellite_sep13_default2_0_positions",
      "componentType": 5126,
      "count": 24,
      "min": [
        -0.10405784845352173,
        -0.09559489786624908,
        -0.09381946176290512
      ],
      "max": [
        0.1065228283405304,
        0.09973112493753433,
        0.08501274883747101
      ],
      "type": "VEC3",
      "bufferView": 0,
      "byteOffset": 0
    },
    {
      "name": "satellite_sep13_default2_0_normals",
      "componentType": 5126,
      "count": 24,
      "min": [
        -0.7375765442848206,
        -0.920103132724762,
        -0.8322429060935974
      ],
      "max": [
        0.7375765442848206,
        0.920103132724762,
        0.8322429060935974
      ],
      "type": "VEC3",
      "bufferView": 1,
      "byteOffset": 0
    },
    {
      "name": "satellite_sep13_default2_0_texcoords",
      "componentType": 5126,
      "count": 24,
      "min": [
        0.5311489701271057,
        0.5298591256141663
      ],
      "max": [
        0.8353484272956848,
        0.9707772135734558
      ],
      "type": "VEC2",
      "bufferView": 2,
      "byteOffset": 0
    },
    {
      "name": "satellite_sep13_default2_0_indices",
      "componentType": 5123,
      "count": 36,
      "min": [
        0
      ],
      "max": [
        23
      ],
      "type": "SCALAR",
      "bufferView": 3,
      "byteOffset": 0
    },
    {
      "name": "satellite_sep12_default2_0_positions",
      "componentType": 5126,
      "count": 66,
      "min": [
        -0.14103436470031738,
        -0.03110531158745289,
        -0.05521485581994057
      ],
      "max": [
        0.11564283818006516,
        0.14732755720615387,
        0.14493964612483978
      ],
      "type": "VEC3",
      "bufferView": 0,
      "byteOffset": 288
    },
    {
      "name": "satellite_sep12_default2_0_normals",
      "componentType": 5126,
      "count": 66,
      "min": [
        -0.9196106791496277,
        -0.9387249946594238,
        -0.8910073041915894
      ],
      "max": [
        0.993057131767273,
        0.9387249946594238,
        0.8910073041915894
      ],
      "type": "VEC3",
      "bufferView": 1,
      "byteOffset": 288
    },
    {
      "name": "satellite_sep12_default2_0_texcoords",
      "componentType": 5126,
      "count": 66,
      "min": [
        0.705815315246582,
        0.016203880310058594
      ],
      "max": [
        0.9960306882858276,
        0.42066067457199097
      ],
      "type": "VEC2",
      "bufferView": 2,
      "byteOffset": 192
    },
    {
      "name": "satellite_sep12_default2_0_indices",
      "componentType": 5123,
      "count": 384,
      "min": [
        0
      ],
      "max": [
        65
      ],
      "type": "SCALAR",
      "bufferView": 3,
      "byteOffset": 72
    },
    {
      "name": "satellite_sep9_default2_0_positions",
      "componentType": 5126,
      "count": 94,
      "min": [
        0.8086484670639038,
        0.16003869473934174,
        -0.00022219760285224766
      ],
      "max": [
        0.8359671235084534,
        0.20460058748722076,
        0.04517131671309471
      ],
      "type": "VEC3",
      "bufferView": 0,
      "byteOffset": 1080
    },
    {
      "name": "satellite_sep9_default2_0_normals",
      "componentType": 5126,
      "count": 94,
      "min": [
        -0.5030065774917603,
        -0.9934914708137512,
        -0.9588000774383545
      ],
      "max": [
        0.9840682744979858,
        0.9824932813644409,
        0.9391489028930664
      ],
      "type": "VEC3",
      "bufferView": 1,
      "byteOffset": 1080
    },
    {
      "name": "satellite_sep9_default2_0_texcoords",
      "componentType": 5126,
      "count": 94,
      "min": [
        0.03416102007031441,
        0.008479829877614975
      ],
      "max": [
        0.6108939051628113,
        0.16931569576263428
      ],
      "type": "VEC2",
      "bufferView": 2,
      "byteOffset": 720
    },
    {
      "name": "satellite_sep9_default2_0_indices",
      "componentType": 5123,
      "count": 378,
      "min": [
        0
      ],
      "max": [
        93
      ],
      "type": "SCALAR",
      "bufferView": 3,
      "byteOffset": 840
    },
    {
      "name": "satellite_sep8_default2_0_positions",
      "componentType": 5126,
      "count": 94,
      "min": [
        -0.8402300477027893,
        -0.20177185535430908,
        -0.05404485762119293
      ],
      "max": [
        -0.8129113912582397,
        -0.15720994770526886,
        -0.008651343174278736
      ],
      "type": "VEC3",
      "bufferView": 0,
      "byteOffset": 2208
    },
    {
      "name": "satellite_sep8_default2_0_normals",
      "componentType": 5126,
      "count": 94,
      "min": [
        -0.9840682148933411,
        -0.9824932217597961,
        -0.9391489028930664
      ],
      "max": [
        0.5030073523521423,
        0.9934914708137512,
        0.9588000178337097
      ],
      "type": "VEC3",
      "bufferView": 1,
      "byteOffset": 2208
    },
    {
      "name": "satellite_sep8_default2_0_texcoords",
      "componentType": 5126,
      "count": 94,
      "min": [
        0.0454375296831131,
        0.013246539980173111
      ],
      "max": [
        0.6194753646850586,
        0.16783636808395386
      ],
      "type": "VEC2",
      "bufferView": 2,
      "byteOffset": 1472
    },
    {
      "name": "satellite_sep8_default2_0_indices",
      "componentType": 5123,
      "count": 378,
      "min": [
        0
      ],
      "max": [
        93
      ],
      "type": "SCALAR",
      "bufferView": 3,
      "byteOffset": 1596
    },
    {
      "name": "satellite_sep7_default2_0_positions",
      "componentType": 5126,
      "count": 46,
      "min": [
        -0.03566903620958328,
        0.015041528269648552,
        0.006130029447376728
      ],
      "max": [
        0.002489795908331871,
        0.1312294602394104,
        0.11049724370241165
      ],
      "type": "VEC3",
      "bufferView": 0,
      "byteOffset": 3336
    },
    {
      "name": "satellite_sep7_default2_0_normals",
      "componentType": 5126,
      "count": 46,
      "min": [
        -0.9532746076583862,
        -0.9356056451797485,
        -0.9715535640716553
      ],
      "max": [
        0.9532746076583862,
        0.9356056451797485,
        0.9715536236763
      ],
      "type": "VEC3",
      "bufferView": 1,
      "byteOffset": 3336
    },
    {
      "name": "satellite_sep7_default2_0_texcoords",
      "componentType": 5126,
      "count": 46,
      "min": [
        0.8842002153396606,
        0.5729013681411743
      ],
      "max": [
        0.9666339755058289,
        0.6671575903892517
      ],
      "type": "VEC2",
      "bufferView": 2,
      "byteOffset": 2224
    },
    {
      "name": "satellite_sep7_default2_0_indices",
      "componentType": 5123,
      "count": 180,
      "min": [
        0
      ],
      "max": [
        45
      ],
      "type": "SCALAR",
      "bufferView": 3,
      "byteOffset": 2352
    },
    {
      "name": "satellite_sep6_default2_0_positions",
      "componentType": 5126,
      "count": 32,
      "min": [
        -0.042751774191856384,
        0.10468214005231857,
        0.08431492000818253
      ],
      "max": [
        -0.01544322818517685,
        0.14134162664413452,
        0.12034419924020767
      ],
      "type": "VEC3",
      "bufferView": 0,
      "byteOffset": 3888
    },
    {
      "name": "satellite_sep6_default2_0_normals",
      "componentType": 5126,
      "count": 32,
      "min": [
        -0.953274667263031,
        -0.9356057047843933,
        -0.9715535640716553
      ],
      "max": [
        0.953274667263031,
        0.9356057047843933,
        0.9715535640716553
      ],
      "type": "VEC3",
      "bufferView": 1,
      "byteOffset": 3888
    },
    {
      "name": "satellite_sep6_default2_0_texcoords",
      "componentType": 5126,
      "count": 32,
      "min": [
        0.8822374939918518,
        0.7157584428787231
      ],
      "max": [
        0.9754661321640015,
        0.8100147247314453
      ],
      "type": "VEC2",
      "bufferView": 2,
      "byteOffset": 2592
    },
    {
      "name": "satellite_sep6_default2_0_indices",
      "componentType": 5123,
      "count": 180,
      "min": [
        0
      ],
      "max": [
        31
      ],
      "type": "SCALAR",
      "bufferView": 3,
      "byteOffset": 2712
    },
    {
      "name": "satellite_sep5_default2_0_positions",
      "componentType": 5126,
      "count": 32,
      "min": [
        -0.7746774554252625,
        -0.17476743459701538,
        -0.035178933292627335
      ],
      "max": [
        0.7771424055099487,
        0.17890365421772003,
        0.02637222409248352
      ],
      "type": "VEC3",
      "bufferView": 0,
      "byteOffset": 4272
    },
    {
      "name": "satellite_sep5_default2_0_normals",
      "componentType": 5126,
      "count": 32,
      "min": [
        -0.6351553797721863,
        -0.9659359455108643,
        -0.9024314284324646
      ],
      "max": [
        0.6351553797721863,
        0.9659360647201538,
        0.9024314880371094
      ],
      "type": "VEC3",
      "bufferView": 1,
      "byteOffset": 4272
    },
    {
      "name": "satellite_sep5_default2_0_texcoords",
      "componentType": 5126,
      "count": 32,
      "min": [
        0.8856476545333862,
        0.8663843870162964
      ],
      "max": [
        0.9779440760612488,
        0.9377393126487732
      ],
      "type": "VEC2",
      "bufferView": 2,
      "byteOffset": 2848
    },
    {
      "name": "satellite_sep5_default2_0_indices",
      "componentType": 5123,
      "count": 180,
      "min": [
        0
      ],
      "max": [
        31
      ],
      "type": "SCALAR",
      "bufferView": 3,
      "byteOffset": 3072
    },
    {
      "name": "satellite_sep4_default2_0_positions",
      "componentType": 5126,
      "count": 24,
      "min": [
        0.15625673532485962,
        -0.0284811332821846,
        -0.07651865482330322
      ],
      "max": [
        0.8259890675544739,
        0.249797523021698,
        0.10003708302974701
      ],
      "type": "VEC3",
      "bufferView": 0,
      "byteOffset": 4656
    },
    {
      "name": "satellite_sep4_default2_0_normals",
      "componentType": 5126,
      "count": 24,
      "min": [
        -0.7375765442848206,
        -0.920103132724762,
        -0.8322429060935974
      ],
      "max": [
        0.7375765442848206,
        0.9201031923294067,
        0.8322429060935974
      ],
      "type": "VEC3",
      "bufferView": 1,
      "byteOffset": 4656
    },
    {
      "name": "satellite_sep4_default2_0_texcoords",
      "componentType": 5126,
      "count": 24,
      "min": [
        0.020387619733810425,
        0.7119660973548889
      ],
      "max": [
        0.4867517352104187,
        0.9596097469329834
      ],
      "type": "VEC2",
      "bufferView": 2,
      "byteOffset": 3104
    },
    {
      "name": "satellite_sep4_default2_0_indices",
      "componentType": 5123,
      "count": 36,
      "min": [
        0
      ],
      "max": [
        23
      ],
      "type": "SCALAR",
      "bufferView": 3,
      "byteOffset": 3432
    },
    {
      "name": "satellite_sep3_default2_0_positions",
      "componentType": 5126,
      "count": 24,
      "min": [
        -0.8298344016075134,
        -0.24706006050109863,
        -0.10905198007822037
      ],
      "max": [
        -0.16010205447673798,
        0.031218601390719414,
        0.06750375777482986
      ],
      "type": "VEC3",
      "bufferView": 0,
      "byteOffset": 4944
    },
    {
      "name": "satellite_sep3_default2_0_normals",
      "componentType": 5126,
      "count": 24,
      "min": [
        -0.7375766038894653,
        -0.9201031923294067,
        -0.8322429656982422
      ],
      "max": [
        0.7375765442848206,
        0.920103132724762,
        0.8322429060935974
      ],
      "type": "VEC3",
      "bufferView": 1,
      "byteOffset": 4944
    },
    {
      "name": "satellite_sep3_default2_0_texcoords",
      "componentType": 5126,
      "count": 24,
      "min": [
        0.020387649536132812,
        0.7119660973548889
      ],
      "max": [
        0.48643723130226135,
        0.9596096873283386
      ],
      "type": "VEC2",
      "bufferView": 2,
      "byteOffset": 3296
    },
    {
      "name": "satellite_sep3_default2_0_indices",
      "componentType": 5123,
      "count": 36,
      "min": [
        0
      ],
      "max": [
        23
      ],
      "type": "SCALAR",
      "bufferView": 3,
      "byteOffset": 3504
    },
    {
      "name": "satellite_sep2_default2_0_positions",
      "componentType": 5126,
      "count": 24,
      "min": [
        -0.053954608738422394,
        -0.09478351473808289,
        -0.09175391495227814
      ],
      "max": [
        0.07254552096128464,
        0.03461602330207825,
        0.026199154555797577
      ],
      "type": "VEC3",
      "bufferView": 0,
      "byteOffset": 5232
    },
    {
      "name": "satellite_sep2_default2_0_normals",
      "componentType": 5126,
      "count": 24,
      "min": [
        -0.7375765442848206,
        -0.920103132724762,
        -0.8322429060935974
      ],
      "max": [
        0.7375765442848206,
        0.920103132724762,
        0.8322429060935974
      ],
      "type": "VEC3",
      "bufferView": 1,
      "byteOffset": 5232
    },
    {
      "name": "satellite_sep2_default2_0_texcoords",
      "componentType": 5126,
      "count": 24,
      "min": [
        0.5976447463035583,
        0.6362297534942627
      ],
      "max": [
        0.8380765318870544,
        0.9734904170036316
      ],
      "type": "VEC2",
      "bufferView": 2,
      "byteOffset": 3488
    },
    {
      "name": "satellite_sep2_default2_0_indices",
      "componentType": 5123,
      "count": 36,
      "min": [
        0
      ],
      "max": [
        23
      ],
      "type": "SCALAR",
      "bufferView": 3,
      "byteOffset": 3576
    },
    {
      "name": "satellite_default2_0_positions",
      "componentType": 5126,
      "count": 100,
      "min": [
        -0.026462053880095482,
        -0.12583793699741364,
        -0.12547732889652252
      ],
      "max": [
        0.0736880972981453,
        -0.007500206120312214,
        -0.012847399339079857
      ],
      "type": "VEC3",
      "bufferView": 0,
      "byteOffset": 5520
    },
    {
      "name": "satellite_default2_0_normals",
      "componentType": 5126,
      "count": 100,
      "min": [
        -0.9922471046447754,
        -0.9983817934989929,
        -0.9957283139228821
      ],
      "max": [
        0.9922471046447754,
        0.8244960904121399,
        0.8870667219161987
      ],
      "type": "VEC3",
      "bufferView": 1,
      "byteOffset": 5520
    },
    {
      "name": "satellite_default2_0_texcoords",
      "componentType": 5126,
      "count": 100,
      "min": [
        0.3601570427417755,
        0.508100152015686
      ],
      "max": [
        0.47595682740211487,
        0.6671575903892517
      ],
      "type": "VEC2",
      "bufferView": 2,
      "byteOffset": 3680
    },
    {
      "name": "satellite_default2_0_indices",
      "componentType": 5123,
      "count": 384,
      "min": [
        0
      ],
      "max": [
        99
      ],
      "type": "SCALAR",
      "bufferView": 3,
      "byteOffset": 3648
    }
  ],
  "asset": {
    "generator": "obj2gltf",
    "version": "2.0"
  },
  "buffers": [
    {
      "name": "Satellite",
      "byteLength": 22336,
      "uri": "data:application/octet-stream;base64,"
    }
  ],
  "bufferViews": [
    {
      "name": "bufferView_0",
      "buffer": 0,
      "byteLength": 6720,
      "byteOffset": 0,
      "byteStride": 12,
      "target": 34962
    },
    {
      "name": "bufferView_1",
      "buffer": 0,
      "byteLength": 6720,
      "byteOffset": 6720,
      "byteStride": 12,
      "target": 34962
    },
    {
      "name": "bufferView_2",
      "buffer": 0,
      "byteLength": 4480,
      "byteOffset": 13440,
      "byteStride": 8,
      "target": 34962
    },
    {
      "name": "bufferView_3",
      "buffer": 0,
      "byteLength": 4416,
      "byteOffset": 17920,
      "target": 34963
    }
  ],
  "materials": [
    {
      "name": "default2",
      "pbrMetallicRoughness": {
        "baseColorFactor": [
          0.5,
          0.5,
          0.5,
          1
        ],
        "metallicFactor": 0,
        "roughnessFactor": 1
      },
      "emissiveFactor": [
        0,
        0,
        0
      ],
      "alphaMode": "OPAQUE",
      "doubleSided": false
    }
  ],
  "meshes": [
    {
      "name": "satellite_sep13_default2",
      "primitives": [
        {
          "attributes": {
            "POSITION": 0,
            "NORMAL": 1,
            "TEXCOORD_0": 2
          },
          "indices": 3,
          "material": 0,
          "mode": 4
        }
      ]
    },
    {
      "name": "satellite_sep12_default2",
      "primitives": [
        {
          "attributes": {
            "POSITION": 4,
            "NORMAL": 5,
            "TEXCOORD_0": 6
          },
          "indices": 7,
          "material": 0,
          "mode": 4
        }
      ]
    },
    {
      "name": "satellite_sep9_default2",
      "primitives": [
        {
          "attributes": {
            "POSITION": 8,
            "NORMAL": 9,
            "TEXCOORD_0": 10
          },
          "indices": 11,
          "material": 0,
          "mode": 4
        }
      ]
    },
    {
      "name": "satellite_sep8_default2",
      "primitives": [
        {
          "attributes": {
            "POSITION": 12,
            "NORMAL": 13,
            "TEXCOORD_0": 14
          },
          "indices": 15,
          "material": 0,
          "mode": 4
        }
      ]
    },
    {
      "name": "satellite_sep7_default2",
      "primitives": [
        {
          "attributes": {
            "POSITION": 16,
            "NORMAL": 17,
            "TEXCOORD_0": 18
          },
          "indices": 19,
          "material": 0,
          "mode": 4
        }
      ]
    },
    {
      "name": "satellite_sep6_default2",
      "primitives": [
        {
          "attributes": {
            "POSITION": 20,
            "NORMAL": 21,
            "TEXCOORD_0": 22
          },
          "indices": 23,
          "material": 0,
          "mode": 4
        }
      ]
    },
    {
      "name": "satellite_sep5_default2",
      "primitives": [
        {
          "attributes": {
            "POSITION": 24,
            "NORMAL": 25,
            "TEXCOORD_0": 26
          },
          "indices": 27,
          "material": 0,
          "mode": 4
        }
      ]
    },
    {
      "name": "satellite_sep4_default2",
      "primitives": [
        {
          "attributes": {
            "POSITION": 28,
            "NORMAL": 29,
            "TEXCOORD_0": 30
          },
          "indices": 31,
          "material": 0,
          "mode": 4
        }
      ]
    },
    {
      "name": "satellite_sep3_default2",
      "primitives": [
        {
          "attributes": {
            "POSITION": 32,
            "NORMAL": 33,
            "TEXCOORD_0": 34
          },
          "indices": 35,
          "material": 0,
          "mode": 4
        }
      ]
    },
    {
      "name": "satellite_sep2_default2",
      "primitives": [
        {
          "attributes": {
            "POSITION": 36,
            "NORMAL": 37,
            "TEXCOORD_0": 38
          },
          "indices": 39,
          "material": 0,
          "mode": 4
        }
      ]
    },
    {
      "name": "satellite_default2",
      "primitives": [
        {
          "attributes": {
            "POSITION": 40,
            "NORMAL": 41,
            "TEXCOORD_0": 42
          },
          "indices": 43,
          "material": 0,
          "mode": 4
        }
      ]
    }
  ],
  "nodes": [
    {
      "name": "satellite_sep13",
      "mesh": 0
    },
    {
      "name": "satellite_sep12",
      "mesh": 1
    },
    {
      "name": "satellite_sep9",
      "mesh": 2
    },
    {
      "name": "satellite_sep8",
      "mesh": 3
    },
    {
      "name": "satellite_sep7",
      "mesh": 4
    },
    {
      "name": "satellite_sep6",
      "mesh": 5
    },
    {
      "name": "satellite_sep5",
      "mesh": 6
    },
    {
      "name": "satellite_sep4",
      "mesh": 7
    },
    {
      "name": "satellite_sep3",
      "mesh": 8
    },
    {
      "name": "satellite_sep2",
      "mesh": 9
    },
    {
      "name": "satellite",
      "mesh": 10
    }
  ],
  "scene": 0,
  "scenes": [
    {
      "nodes": [
        0,
        1,
        2,
        3,
        4,
        5,
        6,
        7,
        8,
        9,
        10
      ]
    }
  ]
}
