{
  "accessors": [
    {
      "name": "AM84_027_10_1_0_positions",
      "componentType": 5126,
      "count": 2160,
      "min": [
        -1906.9249267578125,
        804.1019287109375,
        -1097.128662109375
      ],
      "max": [
        -758.6403198242188,
        2032.8984375,
        43.145301818847656
      ],
      "type": "VEC3",
      "bufferView": 0,
      "byteOffset": 0
    },
    {
      "name": "AM84_027_10_1_0_normals",
      "componentType": 5126,
      "count": 2160,
      "min": [
        -0.9483274817466736,
        -0.948719322681427,
        -0.9445109963417053
      ],
      "max": [
        0.9136800765991211,
        0.9744143486022949,
        0.9089404344558716
      ],
      "type": "VEC3",
      "bufferView": 1,
      "byteOffset": 0
    },
    {
      "name": "AM84_027_10_1_0_texcoords",
      "componentType": 5126,
      "count": 2160,
      "min": [
        0.00019999999494757503,
        0.46950000524520874
      ],
      "max": [
        1.0008000135421753,
        0.5891000032424927
      ],
      "type": "VEC2",
      "bufferView": 2,
      "byteOffset": 0
    },
    {
      "name": "AM84_027_10_1_0_indices",
      "componentType": 5123,
      "count": 3888,
      "min": [
        0
      ],
      "max": [
        2159
      ],
      "type": "SCALAR",
      "bufferView": 3,
      "byteOffset": 0
    },
    {
      "name": "AM84_027_12_1_0_positions",
      "componentType": 5126,
      "count": 690,
      "min": [
        -1512.6307373046875,
        868.6610107421875,
        -705.453125
      ],
      "max": [
        -580.88232421875,
        1573.8377685546875,
        229.25250244140625
      ],
      "type": "VEC3",
      "bufferView": 0,
      "byteOffset": 25920
    },
    {
      "name": "AM84_027_12_1_0_normals",
      "componentType": 5126,
      "count": 690,
      "min": [
        -0.929117739200592,
        -0.9997027516365051,
        -0.9286636710166931
      ],
      "max": [
        0.9763115048408508,
        0.9999703764915466,
        0.9770169854164124
      ],
      "type": "VEC3",
      "bufferView": 1,
      "byteOffset": 25920
    },
    {
      "name": "AM84_027_12_1_0_texcoords",
      "componentType": 5126,
      "count": 690,
      "min": [
        0.009399999864399433,
        -0.9873999953269958
      ],
      "max": [
        0.9929999709129333,
        -0.0010000000474974513
      ],
      "type": "VEC2",
      "bufferView": 2,
      "byteOffset": 17280
    },
    {
      "name": "AM84_027_12_1_0_indices",
      "componentType": 5123,
      "count": 1584,
      "min": [
        0
      ],
      "max": [
        689
      ],
      "type": "SCALAR",
      "bufferView": 3,
      "byteOffset": 7776
    },
    {
      "name": "AM84_027_08_1_0_positions",
      "componentType": 5126,
      "count": 2664,
      "min": [
        -1873.60302734375,
        826.6046752929688,
        -1063.9453125
      ],
      "max": [
        -778.2462158203125,
        1998.748291015625,
        23.754100799560547
      ],
      "type": "VEC3",
      "bufferView": 0,
      "byteOffset": 34200
    },
    {
      "name": "AM84_027_08_1_0_normals",
      "componentType": 5126,
      "count": 2664,
      "min": [
        -0.8362311124801636,
        -0.8846791386604309,
        -0.8304007053375244
      ],
      "max": [
        0.8362311124801636,
        0.8846791386604309,
        0.8304007053375244
      ],
      "type": "VEC3",
      "bufferView": 1,
      "byteOffset": 34200
    },
    {
      "name": "AM84_027_08_1_0_texcoords",
      "componentType": 5126,
      "count": 2664,
      "min": [
        0.027799999341368675,
        0.46799999475479126
      ],
      "max": [
        1.0277999639511108,
        0.701200008392334
      ],
      "type": "VEC2",
      "bufferView": 2,
      "byteOffset": 22800
    },
    {
      "name": "AM84_027_08_1_0_indices",
      "componentType": 5123,
      "count": 7776,
      "min": [
        0
      ],
      "max": [
        2663
      ],
      "type": "SCALAR",
      "bufferView": 3,
      "byteOffset": 10944
    },
    {
      "name": "AM84_027_06_1_0_positions",
      "componentType": 5126,
      "count": 111,
      "min": [
        -1113.537841796875,
        1089.429443359375,
        -302.1080017089844
      ],
      "max": [
        -770.3917846679688,
        1182.0010986328125,
        36.58340072631836
      ],
      "type": "VEC3",
      "bufferView": 0,
      "byteOffset": 66168
    },
    {
      "name": "AM84_027_06_1_0_normals",
      "componentType": 5126,
      "count": 111,
      "min": [
        -0.7128809690475464,
        -0.9923707246780396,
        -0.7126089334487915
      ],
      "max": [
        0.71366947889328,
        0.9923707246780396,
        0.7126089334487915
      ],
      "type": "VEC3",
      "bufferView": 1,
      "byteOffset": 66168
    },
    {
      "name": "AM84_027_06_1_0_texcoords",
      "componentType": 5126,
      "count": 111,
      "min": [
        0,
        0
      ],
      "max": [
        1.0499999523162842,
        1
      ],
      "type": "VEC2",
      "bufferView": 2,
      "byteOffset": 44112
    },
    {
      "name": "AM84_027_06_1_0_indices",
      "componentType": 5123,
      "count": 210,
      "min": [
        0
      ],
      "max": [
        110
      ],
      "type": "SCALAR",
      "bufferView": 3,
      "byteOffset": 26496
    },
    {
      "name": "AM84_027_05_1_0_positions",
      "componentType": 5126,
      "count": 1757,
      "min": [
        -1182.5694580078125,
        334.1919860839844,
        -359.8033142089844
      ],
      "max": [
        -708.2841796875,
        509.1142883300781,
        112.75920104980469
      ],
      "type": "VEC3",
      "bufferView": 0,
      "byteOffset": 67500
    },
    {
      "name": "AM84_027_05_1_0_normals",
      "componentType": 5126,
      "count": 1757,
      "min": [
        -0.9997121095657349,
        -0.9997535943984985,
        -0.9999585747718811
      ],
      "max": [
        0.9997121095657349,
        0.9997535943984985,
        0.9999585747718811
      ],
      "type": "VEC3",
      "bufferView": 1,
      "byteOffset": 67500
    },
    {
      "name": "AM84_027_05_1_0_texcoords",
      "componentType": 5126,
      "count": 1757,
      "min": [
        -13.064499855041504,
        -12.064499855041504
      ],
      "max": [
        13.064499855041504,
        14.064499855041504
      ],
      "type": "VEC2",
      "bufferView": 2,
      "byteOffset": 45000
    },
    {
      "name": "AM84_027_05_1_0_indices",
      "componentType": 5123,
      "count": 3771,
      "min": [
        0
      ],
      "max": [
        1756
      ],
      "type": "SCALAR",
      "bufferView": 3,
      "byteOffset": 26916
    },
    {
      "name": "AM84_027_04_1_0_positions",
      "componentType": 5126,
      "count": 292,
      "min": [
        -1182.9798583984375,
        396.92279052734375,
        -359.8092956542969
      ],
      "max": [
        -710.5031127929688,
        409.0039978027344,
        112.74819946289062
      ],
      "type": "VEC3",
      "bufferView": 0,
      "byteOffset": 88584
    },
    {
      "name": "AM84_027_04_1_0_normals",
      "componentType": 5126,
      "count": 292,
      "min": [
        -0.9997121095657349,
        -0.9997535943984985,
        -0.9999585747718811
      ],
      "max": [
        0.9997121095657349,
        0.9997535943984985,
        0.9999585747718811
      ],
      "type": "VEC3",
      "bufferView": 1,
      "byteOffset": 88584
    },
    {
      "name": "AM84_027_04_1_0_texcoords",
      "componentType": 5126,
      "count": 292,
      "min": [
        0.020800000056624413,
        0
      ],
      "max": [
        1.020799994468689,
        1
      ],
      "type": "VEC2",
      "bufferView": 2,
      "byteOffset": 59056
    },
    {
      "name": "AM84_027_04_1_0_indices",
      "componentType": 5123,
      "count": 720,
      "min": [
        0
      ],
      "max": [
        291
      ],
      "type": "SCALAR",
      "bufferView": 3,
      "byteOffset": 34460
    },
    {
      "name": "AM84_027_02_1_0_positions",
      "componentType": 5126,
      "count": 106,
      "min": [
        -1178.9102783203125,
        400.21630859375,
        -355.80938720703125
      ],
      "max": [
        -714.4661865234375,
        410.5116882324219,
        108.7488021850586
      ],
      "type": "VEC3",
      "bufferView": 0,
      "byteOffset": 92088
    },
    {
      "name": "AM84_027_02_1_0_normals",
      "componentType": 5126,
      "count": 106,
      "min": [
        0.02219896949827671,
        0.9997535943984985,
        0.00009999535541282967
      ],
      "max": [
        0.02219896949827671,
        0.9997535943984985,
        0.00009999535541282967
      ],
      "type": "VEC3",
      "bufferView": 1,
      "byteOffset": 92088
    },
    {
      "name": "AM84_027_02_1_0_texcoords",
      "componentType": 5126,
      "count": 106,
      "min": [
        -1.657099962234497,
        -1.657099962234497
      ],
      "max": [
        2.657099962234497,
        2.657099962234497
      ],
      "type": "VEC2",
      "bufferView": 2,
      "byteOffset": 61392
    },
    {
      "name": "AM84_027_02_1_0_indices",
      "componentType": 5123,
      "count": 462,
      "min": [
        0
      ],
      "max": [
        105
      ],
      "type": "SCALAR",
      "bufferView": 3,
      "byteOffset": 35900
    },
    {
      "name": "AM84_027_01_1_0_positions",
      "componentType": 5126,
      "count": 389,
      "min": [
        -1181.6246337890625,
        384.5867004394531,
        -358.1807861328125
      ],
      "max": [
        -712.0614013671875,
        412.17181396484375,
        111.1187973022461
      ],
      "type": "VEC3",
      "bufferView": 0,
      "byteOffset": 93360
    },
    {
      "name": "AM84_027_01_1_0_normals",
      "componentType": 5126,
      "count": 389,
      "min": [
        -0.9997121095657349,
        -0.9997535943984985,
        -0.9999585747718811
      ],
      "max": [
        0.9997121095657349,
        0.9997535943984985,
        0.9999585747718811
      ],
      "type": "VEC3",
      "bufferView": 1,
      "byteOffset": 93360
    },
    {
      "name": "AM84_027_01_1_0_texcoords",
      "componentType": 5126,
      "count": 389,
      "min": [
        0.020800000056624413,
        0
      ],
      "max": [
        1.020799994468689,
        1
      ],
      "type": "VEC2",
      "bufferView": 2,
      "byteOffset": 62240
    },
    {
      "name": "AM84_027_01_1_0_indices",
      "componentType": 5123,
      "count": 1152,
      "min": [
        0
      ],
      "max": [
        388
      ],
      "type": "SCALAR",
      "bufferView": 3,
      "byteOffset": 36824
    },
    {
      "name": "AM84_027_00_1_0_positions",
      "componentType": 5126,
      "count": 842,
      "min": [
        -1133.9022216796875,
        -13.850899696350098,
        -349.0082092285156
      ],
      "max": [
        -816.1265258789062,
        386.9197082519531,
        13.872599601745605
      ],
      "type": "VEC3",
      "bufferView": 0,
      "byteOffset": 98028
    },
    {
      "name": "AM84_027_00_1_0_normals",
      "componentType": 5126,
      "count": 842,
      "min": [
        -0.9996379613876343,
        -0.9997535943984985,
        -0.999964714050293
      ],
      "max": [
        0.9996286630630493,
        0.9997535943984985,
        0.9997466206550598
      ],
      "type": "VEC3",
      "bufferView": 1,
      "byteOffset": 98028
    },
    {
      "name": "AM84_027_00_1_0_texcoords",
      "componentType": 5126,
      "count": 842,
      "min": [
        0.05739999935030937,
        0.0034000000450760126
      ],
      "max": [
        0.9990000128746033,
        0.9990000128746033
      ],
      "type": "VEC2",
      "bufferView": 2,
      "byteOffset": 65352
    },
    {
      "name": "AM84_027_00_1_0_indices",
      "componentType": 5123,
      "count": 1365,
      "min": [
        0
      ],
      "max": [
        841
      ],
      "type": "SCALAR",
      "bufferView": 3,
      "byteOffset": 39128
    },
    {
      "name": "AM84_027_11_1_0_positions",
      "componentType": 5126,
      "count": 2271,
      "min": [
        -1908.0601806640625,
        804.7474975585938,
        -1098.330810546875
      ],
      "max": [
        -759.3751220703125,
        2033.92138671875,
        42.32569885253906
      ],
      "type": "VEC3",
      "bufferView": 0,
      "byteOffset": 108132
    },
    {
      "name": "AM84_027_11_1_0_normals",
      "componentType": 5126,
      "count": 2271,
      "min": [
        -0.9693453907966614,
        -0.9840731620788574,
        -0.9721659421920776
      ],
      "max": [
        0.9317086935043335,
        0.9840856194496155,
        0.9284652471542358
      ],
      "type": "VEC3",
      "bufferView": 1,
      "byteOffset": 108132
    },
    {
      "name": "AM84_027_11_1_0_texcoords",
      "componentType": 5126,
      "count": 2271,
      "min": [
        0.0010000000474974513,
        -0.996399998664856
      ],
      "max": [
        0.9990000128746033,
        -0.0010000000474974513
      ],
      "type": "VEC2",
      "bufferView": 2,
      "byteOffset": 72088
    },
    {
      "name": "AM84_027_11_1_0_indices",
      "componentType": 5123,
      "count": 4800,
      "min": [
        0
      ],
      "max": [
        2270
      ],
      "type": "SCALAR",
      "bufferView": 3,
      "byteOffset": 41860
    },
    {
      "name": "AM84_027_13_1_0_positions",
      "componentType": 5126,
      "count": 514,
      "min": [
        -1202.0433349609375,
        -25.461999893188477,
        -336.72198486328125
      ],
      "max": [
        -710.0302734375,
        818.8928833007812,
        89.5687026977539
      ],
      "type": "VEC3",
      "bufferView": 0,
      "byteOffset": 135384
    },
    {
      "name": "AM84_027_13_1_0_normals",
      "componentType": 5126,
      "count": 514,
      "min": [
        -0.9969762563705444,
        -0.9997535943984985,
        -0.9950048327445984
      ],
      "max": [
        0.9973095059394836,
        0.9997535943984985,
        0.9950048327445984
      ],
      "type": "VEC3",
      "bufferView": 1,
      "byteOffset": 135384
    },
    {
      "name": "AM84_027_13_1_0_texcoords",
      "componentType": 5126,
      "count": 514,
      "min": [
        0.0010000000474974513,
        0.0024999999441206455
      ],
      "max": [
        0.9970999956130981,
        0.9990000128746033
      ],
      "type": "VEC2",
      "bufferView": 2,
      "byteOffset": 90256
    },
    {
      "name": "AM84_027_13_1_0_indices",
      "componentType": 5123,
      "count": 1092,
      "min": [
        0
      ],
      "max": [
        513
      ],
      "type": "SCALAR",
      "bufferView": 3,
      "byteOffset": 51460
    },
    {
      "name": "AM84_027_07_1_0_positions",
      "componentType": 5126,
      "count": 2414,
      "min": [
        -1249.5997314453125,
        801.3800048828125,
        -437.67041015625
      ],
      "max": [
        -641.7852172851562,
        1190.342529296875,
        169.88619995117188
      ],
      "type": "VEC3",
      "bufferView": 0,
      "byteOffset": 141552
    },
    {
      "name": "AM84_027_07_1_0_normals",
      "componentType": 5126,
      "count": 2414,
      "min": [
        -0.9998713731765747,
        -0.9997607469558716,
        -0.9998176097869873
      ],
      "max": [
        0.9998713731765747,
        0.9997602105140686,
        0.9998176097869873
      ],
      "type": "VEC3",
      "bufferView": 1,
      "byteOffset": 141552
    },
    {
      "name": "AM84_027_07_1_0_texcoords",
      "componentType": 5126,
      "count": 2414,
      "min": [
        0.0010000000474974513,
        0.002099999925121665
      ],
      "max": [
        0.9987999796867371,
        0.9990000128746033
      ],
      "type": "VEC2",
      "bufferView": 2,
      "byteOffset": 94368
    },
    {
      "name": "AM84_027_07_1_0_indices",
      "componentType": 5123,
      "count": 5403,
      "min": [
        0
      ],
      "max": [
        2412
      ],
      "type": "SCALAR",
      "bufferView": 3,
      "byteOffset": 53644
    }
  ],
  "asset": {
    "generator": "obj2gltf",
    "version": "2.0"
  },
  "buffers": [
    {
      "name": "radar1",
      "byteLength": 554976,
      "uri": "data:application/octet-stream;base64,"
    }
  ],
  "bufferViews": [
    {
      "name": "bufferView_0",
      "buffer": 0,
      "byteLength": 170520,
      "byteOffset": 0,
      "byteStride": 12,
      "target": 34962
    },
    {
      "name": "bufferView_1",
      "buffer": 0,
      "byteLength": 170520,
      "byteOffset": 170520,
      "byteStride": 12,
      "target": 34962
    },
    {
      "name": "bufferView_2",
      "buffer": 0,
      "byteLength": 113680,
      "byteOffset": 341040,
      "byteStride": 8,
      "target": 34962
    },
    {
      "name": "bufferView_3",
      "buffer": 0,
      "byteLength": 64452,
      "byteOffset": 454720,
      "target": 34963
    },
    {
      "buffer": 0,
      "byteOffset": 519172,
      "byteLength": 35803
    }
  ],
  "images": [
    {
      "name": "Waves",
      "mimeType": "image/jpeg",
      "bufferView": 4
    }
  ],
  "materials": [
    {
      "name": "Material__19",
      "pbrMetallicRoughness": {
        "baseColorTexture": {
          "index": 0
        },
        "baseColorFactor": [
          1,
          1,
          1,
          1
        ],
        "metallicFactor": 0,
        "roughnessFactor": 0.97
      },
      "emissiveFactor": [
        0,
        0,
        0
      ],
      "alphaMode": "OPAQUE",
      "doubleSided": false
    }
  ],
  "meshes": [
    {
      "name": "AM84_027_10_1",
      "primitives": [
        {
          "attributes": {
            "POSITION": 0,
            "NORMAL": 1,
            "TEXCOORD_0": 2
          },
          "indices": 3,
          "material": 0,
          "mode": 4
        }
      ]
    },
    {
      "name": "AM84_027_12_1",
      "primitives": [
        {
          "attributes": {
            "POSITION": 4,
            "NORMAL": 5,
            "TEXCOORD_0": 6
          },
          "indices": 7,
          "material": 0,
          "mode": 4
        }
      ]
    },
    {
      "name": "AM84_027_08_1",
      "primitives": [
        {
          "attributes": {
            "POSITION": 8,
            "NORMAL": 9,
            "TEXCOORD_0": 10
          },
          "indices": 11,
          "material": 0,
          "mode": 4
        }
      ]
    },
    {
      "name": "AM84_027_06_1",
      "primitives": [
        {
          "attributes": {
            "POSITION": 12,
            "NORMAL": 13,
            "TEXCOORD_0": 14
          },
          "indices": 15,
          "material": 0,
          "mode": 4
        }
      ]
    },
    {
      "name": "AM84_027_05_1",
      "primitives": [
        {
          "attributes": {
            "POSITION": 16,
            "NORMAL": 17,
            "TEXCOORD_0": 18
          },
          "indices": 19,
          "material": 0,
          "mode": 4
        }
      ]
    },
    {
      "name": "AM84_027_04_1",
      "primitives": [
        {
          "attributes": {
            "POSITION": 20,
            "NORMAL": 21,
            "TEXCOORD_0": 22
          },
          "indices": 23,
          "material": 0,
          "mode": 4
        }
      ]
    },
    {
      "name": "AM84_027_02_1",
      "primitives": [
        {
          "attributes": {
            "POSITION": 24,
            "NORMAL": 25,
            "TEXCOORD_0": 26
          },
          "indices": 27,
          "material": 0,
          "mode": 4
        }
      ]
    },
    {
      "name": "AM84_027_01_1",
      "primitives": [
        {
          "attributes": {
            "POSITION": 28,
            "NORMAL": 29,
            "TEXCOORD_0": 30
          },
          "indices": 31,
          "material": 0,
          "mode": 4
        }
      ]
    },
    {
      "name": "AM84_027_00_1",
      "primitives": [
        {
          "attributes": {
            "POSITION": 32,
            "NORMAL": 33,
            "TEXCOORD_0": 34
          },
          "indices": 35,
          "material": 0,
          "mode": 4
        }
      ]
    },
    {
      "name": "AM84_027_11_1",
      "primitives": [
        {
          "attributes": {
            "POSITION": 36,
            "NORMAL": 37,
            "TEXCOORD_0": 38
          },
          "indices": 39,
          "material": 0,
          "mode": 4
        }
      ]
    },
    {
      "name": "AM84_027_13_1",
      "primitives": [
        {
          "attributes": {
            "POSITION": 40,
            "NORMAL": 41,
            "TEXCOORD_0": 42
          },
          "indices": 43,
          "material": 0,
          "mode": 4
        }
      ]
    },
    {
      "name": "AM84_027_07_1",
      "primitives": [
        {
          "attributes": {
            "POSITION": 44,
            "NORMAL": 45,
            "TEXCOORD_0": 46
          },
          "indices": 47,
          "material": 0,
          "mode": 4
        }
      ]
    }
  ],
  "nodes": [
    {
      "name": "AM84_027_10",
      "mesh": 0
    },
    {
      "name": "AM84_027_12",
      "mesh": 1
    },
    {
      "name": "AM84_027_08",
      "mesh": 2
    },
    {
      "name": "AM84_027_06",
      "mesh": 3
    },
    {
      "name": "AM84_027_05",
      "mesh": 4
    },
    {
      "name": "AM84_027_04",
      "mesh": 5
    },
    {
      "name": "AM84_027_02",
      "mesh": 6
    },
    {
      "name": "AM84_027_01",
      "mesh": 7
    },
    {
      "name": "AM84_027_00",
      "mesh": 8
    },
    {
      "name": "AM84_027_11",
      "mesh": 9
    },
    {
      "name": "AM84_027_13",
      "mesh": 10
    },
    {
      "name": "AM84_027_07",
      "mesh": 11
    }
  ],
  "samplers": [
    {
      "magFilter": 9729,
      "minFilter": 9986,
      "wrapS": 10497,
      "wrapT": 10497
    }
  ],
  "scene": 0,
  "scenes": [
    {
      "nodes": [
        0,
        1,
        2,
        3,
        4,
        5,
        6,
        7,
        8,
        9,
        10,
        11
      ]
    }
  ],
  "textures": [
    {
      "name": "Waves",
      "sampler": 0,
      "source": 0
    }
  ]
}
